<?xml version="1.0" encoding="UTF-8"?>
<svg id="Camada_1" data-name="Camada 1" xmlns="http://www.w3.org/2000/svg" viewBox="0 0 175.93 106.69">
  <rect x=".5" y=".5" width="174.93" height="105.69" rx="10" ry="10" style="fill: #fff; stroke: #c49c5e; stroke-miterlimit: 10;"/>
  <circle cx="87.96" cy="53.35" r="29.91" style="fill: #c49c5e;"/>
  <path d="M88.39,57.54v-19.85c-.22-1.09-1.46-1.82-2.77-1.65-1.02.14-1.82.8-1.99,1.65v20.53h0c-.03.16-.03.32,0,.47-.03.1-.03.21,0,.32v.26l.32.37h0l14.15,10.5c.42.34.99.53,1.59.53,1.3.02,2.37-.83,2.4-1.9.02-.58-.28-1.14-.81-1.51l-12.89-9.71h0Z" style="fill: #fff;"/>
</svg>