<svg xmlns="http://www.w3.org/2000/svg" xmlns:xlink="http://www.w3.org/1999/xlink" width="500" zoomAndPan="magnify" viewBox="0 0 375 374.999991" height="500" preserveAspectRatio="xMidYMid meet" version="1.0"><defs><g/><clipPath id="8b6a340fae"><path d="M 290 199.890625 L 299 199.890625 L 299 216 L 290 216 Z M 290 199.890625 " clip-rule="nonzero"/></clipPath><clipPath id="83766f9fd5"><path d="M 297 214 L 313.859375 214 L 313.859375 223 L 297 223 Z M 297 214 " clip-rule="nonzero"/></clipPath><clipPath id="0d4eb32661"><path d="M 274.859375 214 L 292 214 L 292 223 L 274.859375 223 Z M 274.859375 214 " clip-rule="nonzero"/></clipPath><clipPath id="f5d3fb7645"><path d="M 290 220 L 299 220 L 299 236.640625 L 290 236.640625 Z M 290 220 " clip-rule="nonzero"/></clipPath></defs><path fill="#ffffff" d="M 278.429688 99.4375 C 293.59375 96.535156 293.3125 115.925781 277.644531 119.925781 C 271.128906 121.589844 264.550781 116.585938 266.515625 109.957031 C 267.960938 105.078125 272.945312 100.488281 278.429688 99.4375 Z M 199.414062 181.105469 C 199.925781 180.601562 199.328125 181.28125 200.03125 180.4375 C 200.613281 179.734375 199.757812 180.835938 200.382812 179.984375 L 236.824219 119.882812 C 257.046875 85.8125 249.15625 99.710938 239.285156 94.074219 C 234.238281 91.191406 232.75 82.734375 235.800781 76.242188 C 244.992188 56.675781 270.242188 67.984375 256.636719 89.511719 L 242.921875 112.390625 C 242.09375 113.769531 241.03125 114.886719 241.175781 116.617188 C 241.863281 124.796875 242.703125 122.183594 236.402344 130.242188 L 228.050781 142.117188 L 227.714844 142.710938 C 227.417969 143.257812 227.316406 143.429688 226.800781 144.148438 L 199.460938 183.3125 C 202.390625 181.316406 206.265625 174.972656 208.566406 171.953125 C 213.679688 165.25 212.917969 163.382812 218.378906 161.789062 C 280.3125 143.683594 300.480469 186.6875 272.441406 194.066406 C 287.15625 194.992188 295.367188 171.960938 273.234375 159.324219 C 266.058594 155.226562 257.804688 153.003906 248.34375 152.484375 C 234.882812 151.746094 231.5 154.097656 220.316406 155.648438 C 221.679688 153.300781 223.320312 151.320312 224.902344 149.058594 L 238.484375 129.84375 C 244.394531 121.777344 240.386719 124.5 249.179688 118.28125 C 251.316406 116.769531 253.328125 115.292969 255.597656 113.753906 C 256.957031 112.835938 260.714844 109.417969 262.039062 110.085938 C 262.820312 110.675781 262.605469 115.582031 264.164062 118.226562 C 265.300781 120.15625 267.34375 121.921875 269.695312 122.867188 C 285.796875 129.335938 302.179688 104.992188 287.453125 97.191406 C 285.054688 95.921875 281.664062 95.804688 285.84375 91.953125 C 287.46875 90.453125 293.371094 84.199219 291.511719 82.214844 C 289.523438 80.097656 287.257812 85.632812 286.199219 87.035156 C 284.449219 89.347656 282.941406 90.605469 280.9375 92.320312 C 278.890625 94.070312 277.078125 95.195312 274.554688 96.515625 C 266.914062 100.515625 256.480469 108.359375 249.039062 113.617188 C 247.085938 115 244.863281 117.578125 242.269531 117.085938 C 241.75 112.886719 259.191406 89.179688 260.691406 81.550781 C 263.007812 69.753906 252.949219 61.527344 242.847656 67.421875 C 235.140625 71.914062 230.097656 83.386719 235.261719 91.6875 C 239.042969 97.757812 243.964844 95.984375 247.90625 96.773438 C 248.632812 98.742188 243.082031 106.476562 241.816406 108.640625 C 240.617188 110.695312 239.5 112.515625 238.300781 114.566406 C 237.632812 115.710938 237.265625 116.636719 236.449219 117.246094 L 203.730469 144.121094 C 198.640625 148.363281 188.023438 156.1875 183.660156 160.632812 C 180.925781 163.421875 176.550781 167.058594 174.6875 169.679688 C 178.042969 168.203125 184.441406 163.285156 187.757812 160.972656 L 226.296875 134.484375 C 225.414062 137.285156 218.21875 148.652344 216.164062 152.03125 C 212.964844 157.296875 214.386719 157.34375 209.558594 158.996094 C 199.679688 162.378906 190.300781 166.855469 180.773438 170.941406 C 144.289062 186.582031 142.351562 147.023438 160.214844 138.695312 C 167.050781 135.507812 175.917969 139.410156 184.050781 139.316406 C 191.296875 139.234375 187.207031 135.136719 189.023438 130.535156 C 190.632812 126.453125 194.523438 127.109375 190.859375 122.539062 C 192.410156 120.355469 196.09375 119.78125 193.75 116.234375 C 191.148438 112.296875 191.867188 112.042969 195.457031 109.828125 C 202.484375 105.496094 192.675781 102.792969 190.136719 98.339844 C 186.578125 92.101562 188.203125 83.226562 181.84375 73.808594 C 180.070312 71.191406 178.859375 70.207031 176.992188 68.386719 C 179.828125 73.304688 182.332031 77.570312 180.796875 85.34375 C 177.78125 100.585938 162.882812 111.214844 150.292969 119.34375 C 135.410156 128.957031 126.824219 143.90625 131.910156 162.609375 C 134.140625 170.808594 135.648438 170.925781 138.84375 176.839844 C 136.746094 175.121094 134.089844 170.476562 132.683594 167.105469 C 127.394531 154.445312 129.023438 140.480469 136.597656 130.175781 C 141.269531 123.824219 147.589844 120.207031 153.597656 115.480469 C 158.695312 111.464844 163.808594 107.339844 168.019531 102.355469 C 168.78125 101.453125 168.980469 100.992188 169.542969 100.363281 C 167.085938 102.140625 165.066406 103.902344 162.113281 105.894531 C 149.03125 114.722656 132.804688 119.632812 125.027344 134.425781 C 120.828125 142.417969 121.378906 146.824219 121.375 156.089844 C 119.859375 152.074219 120.734375 143.546875 121.957031 139.300781 C 127.355469 120.550781 146.488281 113.253906 161.078125 102.984375 C 167.683594 98.335938 176.054688 89.960938 177.183594 81.375 C 177.90625 75.886719 175.394531 69.671875 172.433594 67.511719 C 173.8125 73.773438 174.894531 76.863281 170.902344 82.613281 C 161.714844 95.855469 124.160156 101.527344 105.945312 114.59375 C 99.648438 119.113281 90.644531 128.878906 89.484375 137.011719 C 90.78125 131.914062 90.8125 130.203125 93.355469 125.378906 C 106.15625 101.097656 138.070312 95.855469 159.039062 80.035156 C 137.140625 90.976562 108.226562 97.390625 90.136719 113.503906 C 81.792969 120.933594 75 135.253906 80.238281 151.28125 C 83.773438 162.085938 94.097656 173.597656 104.761719 177.589844 C 102.574219 171.488281 100.722656 167.84375 99.925781 160.265625 C 99.222656 153.53125 99.753906 146.492188 101.523438 140.339844 C 104.882812 128.625 112.558594 120.839844 120.550781 115.238281 C 136.308594 104.195312 171.519531 95.375 174.832031 81.507812 C 172.15625 100.210938 127.617188 107.992188 113.601562 132.8125 C 106.476562 145.4375 108.972656 164.917969 117.867188 176.265625 C 121.390625 180.761719 123.195312 182.214844 128 184.996094 C 163.265625 205.410156 194.335938 169.414062 208.183594 165.621094 Z M 199.414062 181.105469 " fill-opacity="1" fill-rule="evenodd"/><path fill="#ffffff" d="M 238.289062 90.410156 C 232.605469 76.800781 246.582031 64.082031 254.546875 70.507812 C 258.640625 73.808594 257.796875 81.410156 255.039062 86.046875 C 252.507812 90.296875 248.34375 93.777344 241.535156 92.90625 C 248.792969 94.457031 253.574219 91.457031 256.402344 86.652344 C 259.863281 80.777344 259.855469 73.4375 254.898438 69.78125 C 245.707031 63.003906 229.449219 79.253906 238.289062 90.410156 Z M 238.289062 90.410156 " fill-opacity="1" fill-rule="evenodd"/><g fill="#ffffff" fill-opacity="1"><g transform="translate(43.496807, 231.378446)"><g><path d="M 14.09375 -16.59375 C 15.226562 -16.164062 16.332031 -15.707031 17.40625 -15.21875 C 18.488281 -14.738281 19.46875 -14.175781 20.34375 -13.53125 C 21.21875 -12.882812 21.910156 -12.109375 22.421875 -11.203125 C 22.929688 -10.304688 23.1875 -9.222656 23.1875 -7.953125 C 23.1875 -6.316406 22.726562 -4.867188 21.8125 -3.609375 C 20.894531 -2.359375 19.613281 -1.375 17.96875 -0.65625 C 16.332031 0.0507812 14.4375 0.40625 12.28125 0.40625 C 10.289062 0.40625 8.472656 0.109375 6.828125 -0.484375 C 5.179688 -1.078125 3.875 -1.882812 2.90625 -2.90625 C 1.9375 -3.925781 1.453125 -5.070312 1.453125 -6.34375 C 1.453125 -7.09375 1.710938 -7.71875 2.234375 -8.21875 C 2.765625 -8.71875 3.429688 -8.96875 4.234375 -8.96875 C 4.960938 -8.96875 5.566406 -8.71875 6.046875 -8.21875 C 6.535156 -7.71875 6.78125 -7.09375 6.78125 -6.34375 C 6.78125 -5.582031 6.535156 -4.945312 6.046875 -4.4375 C 5.566406 -3.925781 4.960938 -3.671875 4.234375 -3.671875 C 4.046875 -3.671875 3.898438 -3.6875 3.796875 -3.71875 C 4.492188 -2.800781 5.488281 -2.066406 6.78125 -1.515625 C 8.070312 -0.960938 9.515625 -0.6875 11.109375 -0.6875 C 13.148438 -0.6875 14.820312 -1.113281 16.125 -1.96875 C 17.4375 -2.832031 18.09375 -3.953125 18.09375 -5.328125 C 18.09375 -6.328125 17.757812 -7.175781 17.09375 -7.875 C 16.4375 -8.570312 15.578125 -9.191406 14.515625 -9.734375 C 13.453125 -10.273438 12.289062 -10.800781 11.03125 -11.3125 C 9.976562 -11.769531 8.921875 -12.242188 7.859375 -12.734375 C 6.796875 -13.234375 5.8125 -13.820312 4.90625 -14.5 C 4 -15.175781 3.273438 -15.984375 2.734375 -16.921875 C 2.203125 -17.867188 1.9375 -19 1.9375 -20.3125 C 1.9375 -22.007812 2.394531 -23.484375 3.3125 -24.734375 C 4.226562 -25.992188 5.472656 -26.960938 7.046875 -27.640625 C 8.617188 -28.328125 10.414062 -28.671875 12.4375 -28.671875 C 14.269531 -28.671875 15.910156 -28.398438 17.359375 -27.859375 C 18.816406 -27.328125 19.96875 -26.585938 20.8125 -25.640625 C 21.664062 -24.703125 22.09375 -23.628906 22.09375 -22.421875 C 22.09375 -21.660156 21.847656 -21.023438 21.359375 -20.515625 C 20.878906 -20.003906 20.273438 -19.75 19.546875 -19.75 C 18.742188 -19.75 18.078125 -20.003906 17.546875 -20.515625 C 17.023438 -21.023438 16.765625 -21.660156 16.765625 -22.421875 C 16.765625 -23.171875 17.023438 -23.796875 17.546875 -24.296875 C 18.078125 -24.796875 18.742188 -25.046875 19.546875 -25.046875 L 19.796875 -25.046875 C 19.203125 -25.828125 18.335938 -26.453125 17.203125 -26.921875 C 16.078125 -27.390625 14.828125 -27.625 13.453125 -27.625 C 12.179688 -27.625 11.035156 -27.414062 10.015625 -27 C 8.992188 -26.582031 8.191406 -26.003906 7.609375 -25.265625 C 7.035156 -24.523438 6.75 -23.679688 6.75 -22.734375 C 6.75 -21.660156 7.101562 -20.757812 7.8125 -20.03125 C 8.53125 -19.300781 9.445312 -18.664062 10.5625 -18.125 C 11.675781 -17.59375 12.851562 -17.082031 14.09375 -16.59375 Z M 14.09375 -16.59375 "/></g></g></g><g fill="#ffffff" fill-opacity="1"><g transform="translate(67.042251, 231.378446)"><g><path d="M 21.046875 0 L 17.734375 -7.640625 L 5.125 -7.640625 L 1.8125 0 L 0.6875 0 L 13.09375 -28.28125 L 15.234375 -28.28125 L 27.59375 0 Z M 5.5 -8.4375 L 17.40625 -8.4375 L 11.46875 -22.140625 Z M 5.5 -8.4375 "/></g></g></g><g fill="#ffffff" fill-opacity="1"><g transform="translate(94.505222, 231.378446)"><g><path d="M 25.40625 -3.0625 C 25.695312 -2.445312 26.050781 -1.851562 26.46875 -1.28125 C 26.894531 -0.71875 27.304688 -0.289062 27.703125 0 L 21.046875 0 C 20.671875 -0.238281 20.320312 -0.582031 20 -1.03125 C 19.675781 -1.476562 19.40625 -1.914062 19.1875 -2.34375 L 15.421875 -10.46875 C 15.234375 -10.84375 14.992188 -11.171875 14.703125 -11.453125 C 14.410156 -11.734375 14.035156 -11.957031 13.578125 -12.125 L 9.171875 -12.125 L 9.171875 0 L 2.984375 0 L 2.984375 -28.28125 L 15.03125 -28.28125 C 17.039062 -28.28125 18.847656 -27.925781 20.453125 -27.21875 C 22.054688 -26.519531 23.320312 -25.5625 24.25 -24.34375 C 25.175781 -23.132812 25.640625 -21.738281 25.640625 -20.15625 C 25.640625 -18.75 25.269531 -17.488281 24.53125 -16.375 C 23.789062 -15.257812 22.769531 -14.34375 21.46875 -13.625 C 20.164062 -12.914062 18.664062 -12.453125 16.96875 -12.234375 C 18.257812 -12.023438 19.425781 -11.625 20.46875 -11.03125 C 21.519531 -10.4375 22.289062 -9.585938 22.78125 -8.484375 Z M 9.171875 -27.46875 L 9.171875 -12.921875 L 13.578125 -12.921875 C 15.328125 -12.921875 16.71875 -13.582031 17.75 -14.90625 C 18.789062 -16.226562 19.3125 -17.992188 19.3125 -20.203125 C 19.3125 -22.398438 18.789062 -24.160156 17.75 -25.484375 C 16.71875 -26.804688 15.328125 -27.46875 13.578125 -27.46875 Z M 9.171875 -27.46875 "/></g></g></g><g fill="#ffffff" fill-opacity="1"><g transform="translate(121.362393, 231.378446)"><g><path d="M 21.046875 0 L 17.734375 -7.640625 L 5.125 -7.640625 L 1.8125 0 L 0.6875 0 L 13.09375 -28.28125 L 15.234375 -28.28125 L 27.59375 0 Z M 5.5 -8.4375 L 17.40625 -8.4375 L 11.46875 -22.140625 Z M 5.5 -8.4375 "/></g></g></g><g fill="#ffffff" fill-opacity="1"><g transform="translate(148.825362, 231.378446)"><g/></g></g><g fill="#ffffff" fill-opacity="1"><g transform="translate(158.356553, 231.378446)"><g><path d="M 23.015625 -27.46875 L 9.171875 -27.46875 L 9.171875 -14.34375 L 19.796875 -14.34375 L 19.796875 -13.53125 L 9.171875 -13.53125 L 9.171875 0 L 2.984375 0 L 2.984375 -28.28125 L 23.015625 -28.28125 Z M 23.015625 -27.46875 "/></g></g></g><g fill="#ffffff" fill-opacity="1"><g transform="translate(181.296192, 231.378446)"><g><path d="M 21.046875 0 L 17.734375 -7.640625 L 5.125 -7.640625 L 1.8125 0 L 0.6875 0 L 13.09375 -28.28125 L 15.234375 -28.28125 L 27.59375 0 Z M 5.5 -8.4375 L 17.40625 -8.4375 L 11.46875 -22.140625 Z M 5.5 -8.4375 "/></g></g></g><g fill="#ffffff" fill-opacity="1"><g transform="translate(208.759171, 231.378446)"><g><path d="M 14.09375 -16.59375 C 15.226562 -16.164062 16.332031 -15.707031 17.40625 -15.21875 C 18.488281 -14.738281 19.46875 -14.175781 20.34375 -13.53125 C 21.21875 -12.882812 21.910156 -12.109375 22.421875 -11.203125 C 22.929688 -10.304688 23.1875 -9.222656 23.1875 -7.953125 C 23.1875 -6.316406 22.726562 -4.867188 21.8125 -3.609375 C 20.894531 -2.359375 19.613281 -1.375 17.96875 -0.65625 C 16.332031 0.0507812 14.4375 0.40625 12.28125 0.40625 C 10.289062 0.40625 8.472656 0.109375 6.828125 -0.484375 C 5.179688 -1.078125 3.875 -1.882812 2.90625 -2.90625 C 1.9375 -3.925781 1.453125 -5.070312 1.453125 -6.34375 C 1.453125 -7.09375 1.710938 -7.71875 2.234375 -8.21875 C 2.765625 -8.71875 3.429688 -8.96875 4.234375 -8.96875 C 4.960938 -8.96875 5.566406 -8.71875 6.046875 -8.21875 C 6.535156 -7.71875 6.78125 -7.09375 6.78125 -6.34375 C 6.78125 -5.582031 6.535156 -4.945312 6.046875 -4.4375 C 5.566406 -3.925781 4.960938 -3.671875 4.234375 -3.671875 C 4.046875 -3.671875 3.898438 -3.6875 3.796875 -3.71875 C 4.492188 -2.800781 5.488281 -2.066406 6.78125 -1.515625 C 8.070312 -0.960938 9.515625 -0.6875 11.109375 -0.6875 C 13.148438 -0.6875 14.820312 -1.113281 16.125 -1.96875 C 17.4375 -2.832031 18.09375 -3.953125 18.09375 -5.328125 C 18.09375 -6.328125 17.757812 -7.175781 17.09375 -7.875 C 16.4375 -8.570312 15.578125 -9.191406 14.515625 -9.734375 C 13.453125 -10.273438 12.289062 -10.800781 11.03125 -11.3125 C 9.976562 -11.769531 8.921875 -12.242188 7.859375 -12.734375 C 6.796875 -13.234375 5.8125 -13.820312 4.90625 -14.5 C 4 -15.175781 3.273438 -15.984375 2.734375 -16.921875 C 2.203125 -17.867188 1.9375 -19 1.9375 -20.3125 C 1.9375 -22.007812 2.394531 -23.484375 3.3125 -24.734375 C 4.226562 -25.992188 5.472656 -26.960938 7.046875 -27.640625 C 8.617188 -28.328125 10.414062 -28.671875 12.4375 -28.671875 C 14.269531 -28.671875 15.910156 -28.398438 17.359375 -27.859375 C 18.816406 -27.328125 19.96875 -26.585938 20.8125 -25.640625 C 21.664062 -24.703125 22.09375 -23.628906 22.09375 -22.421875 C 22.09375 -21.660156 21.847656 -21.023438 21.359375 -20.515625 C 20.878906 -20.003906 20.273438 -19.75 19.546875 -19.75 C 18.742188 -19.75 18.078125 -20.003906 17.546875 -20.515625 C 17.023438 -21.023438 16.765625 -21.660156 16.765625 -22.421875 C 16.765625 -23.171875 17.023438 -23.796875 17.546875 -24.296875 C 18.078125 -24.796875 18.742188 -25.046875 19.546875 -25.046875 L 19.796875 -25.046875 C 19.203125 -25.828125 18.335938 -26.453125 17.203125 -26.921875 C 16.078125 -27.390625 14.828125 -27.625 13.453125 -27.625 C 12.179688 -27.625 11.035156 -27.414062 10.015625 -27 C 8.992188 -26.582031 8.191406 -26.003906 7.609375 -25.265625 C 7.035156 -24.523438 6.75 -23.679688 6.75 -22.734375 C 6.75 -21.660156 7.101562 -20.757812 7.8125 -20.03125 C 8.53125 -19.300781 9.445312 -18.664062 10.5625 -18.125 C 11.675781 -17.59375 12.851562 -17.082031 14.09375 -16.59375 Z M 14.09375 -16.59375 "/></g></g></g><g fill="#ffffff" fill-opacity="1"><g transform="translate(232.304622, 231.378446)"><g><path d="M 22.53125 -28.28125 L 28.71875 -28.28125 L 28.71875 0 L 22.53125 0 L 22.53125 -13.9375 L 9.171875 -13.9375 L 9.171875 0 L 2.984375 0 L 2.984375 -28.28125 L 9.171875 -28.28125 L 9.171875 -14.75 L 22.53125 -14.75 Z M 22.53125 -28.28125 "/></g></g></g><g fill="#ffffff" fill-opacity="1"><g transform="translate(263.200485, 231.378446)"><g><path d="M 2.984375 0 L 2.984375 -28.28125 L 9.171875 -28.28125 L 9.171875 0 Z M 2.984375 0 "/></g></g></g><g fill="#ffffff" fill-opacity="1"><g transform="translate(274.555541, 231.378446)"><g/></g></g><g fill="#ffffff" fill-opacity="1"><g transform="translate(284.086734, 231.378446)"><g/></g></g><g fill="#ffffff" fill-opacity="1"><g transform="translate(293.617926, 231.378446)"><g/></g></g><g fill="#ffffff" fill-opacity="1"><g transform="translate(303.149119, 231.378446)"><g/></g></g><g fill="#ffffff" fill-opacity="1"><g transform="translate(312.686129, 231.378446)"><g><path d="M 25.8125 -28.28125 L 26.78125 -28.28125 L 26.78125 0 L 25.40625 0 L 3.953125 -21.765625 L 3.953125 0 L 2.984375 0 L 2.984375 -28.28125 L 6.015625 -28.28125 L 25.8125 -8.03125 Z M 25.8125 -28.28125 "/></g></g></g><g clip-path="url(#8b6a340fae)"><path fill="#ffffff" d="M 294.292969 205.8125 C 294.289062 205.804688 294.28125 205.800781 294.273438 205.800781 C 294.265625 205.804688 294.257812 205.808594 294.253906 205.816406 C 293.804688 207.210938 293.441406 208.648438 293.378906 210.082031 C 293.339844 210.945312 293.347656 211.949219 293.429688 212.890625 C 293.496094 213.683594 293.558594 214.472656 293.617188 215.261719 C 293.625 215.355469 293.625 215.445312 293.628906 215.527344 C 293.628906 215.539062 293.621094 215.546875 293.609375 215.550781 C 293.597656 215.550781 293.585938 215.546875 293.582031 215.535156 C 293.3125 214.828125 293.046875 214.125 292.777344 213.425781 C 292.183594 211.855469 291.476562 210.316406 290.707031 208.824219 C 290.519531 208.460938 290.320312 207.953125 290.230469 207.554688 C 289.996094 206.523438 290.234375 205.5 290.65625 204.546875 C 291.457031 202.730469 292.753906 201.234375 294.253906 199.972656 C 294.316406 199.917969 294.375 199.921875 294.4375 199.972656 C 295.445312 200.859375 296.320312 201.859375 297.0625 202.972656 C 297.804688 204.082031 298.496094 205.476562 298.476562 206.84375 C 298.46875 207.542969 298.207031 208.25 297.898438 208.890625 C 297.078125 210.589844 296.574219 211.617188 295.996094 213.128906 C 295.695312 213.929688 295.390625 214.726562 295.074219 215.523438 C 295.074219 215.535156 295.066406 215.539062 295.054688 215.535156 C 295.042969 215.535156 295.039062 215.53125 295.039062 215.519531 C 295.019531 215.339844 295.042969 215.191406 295.058594 215.015625 C 295.152344 214.132812 295.234375 213.246094 295.304688 212.359375 C 295.359375 211.636719 295.382812 210.90625 295.316406 210.183594 C 295.191406 208.765625 294.886719 207.386719 294.394531 206.046875 C 294.367188 205.972656 294.34375 205.882812 294.292969 205.8125 Z M 294.292969 205.8125 " fill-opacity="1" fill-rule="nonzero"/></g><path fill="#ffffff" d="M 286.199219 211.582031 C 287.214844 212.988281 288.339844 214.117188 289.695312 215.238281 C 290.253906 215.695312 290.808594 216.15625 291.367188 216.617188 C 291.4375 216.675781 291.5 216.738281 291.550781 216.804688 C 291.554688 216.808594 291.554688 216.8125 291.550781 216.820312 C 291.546875 216.824219 291.542969 216.824219 291.535156 216.824219 C 290.445312 216.386719 289.390625 215.824219 288.328125 215.324219 C 287.03125 214.714844 285.675781 214.207031 284.320312 213.746094 C 284.203125 213.707031 284.011719 213.621094 283.742188 213.488281 C 281.640625 212.460938 280.867188 209.953125 280.582031 207.808594 C 280.535156 207.472656 280.527344 207.082031 280.496094 206.71875 C 280.460938 206.300781 280.539062 205.828125 280.542969 205.34375 C 280.542969 205.078125 280.613281 204.847656 280.632812 204.609375 C 280.636719 204.570312 280.65625 204.550781 280.695312 204.546875 C 282.851562 204.496094 285.050781 204.902344 286.964844 205.898438 C 287.816406 206.34375 288.636719 207.023438 289.0625 207.894531 C 289.253906 208.289062 289.398438 208.6875 289.546875 209.160156 C 289.914062 210.308594 290.222656 211.253906 290.703125 212.316406 C 291.195312 213.398438 291.742188 214.449219 292.34375 215.472656 C 292.355469 215.492188 292.425781 215.640625 292.414062 215.65625 C 292.402344 215.667969 292.394531 215.667969 292.382812 215.660156 C 291.300781 214.476562 290.253906 213.246094 289.109375 212.125 C 287.839844 210.886719 286.433594 209.871094 284.84375 209.089844 C 284.804688 209.070312 284.777344 209.0625 284.761719 209.066406 C 284.722656 209.070312 284.710938 209.089844 284.726562 209.121094 C 285.167969 209.96875 285.644531 210.8125 286.199219 211.582031 Z M 286.199219 211.582031 " fill-opacity="1" fill-rule="nonzero"/><path fill="#ffffff" d="M 303.988281 209.023438 C 303.996094 208.992188 303.984375 208.984375 303.957031 209 C 302.707031 209.609375 301.496094 210.371094 300.4375 211.277344 C 299.589844 212.003906 299 212.59375 298.230469 213.472656 C 297.609375 214.183594 296.980469 214.890625 296.34375 215.589844 C 296.308594 215.632812 296.269531 215.660156 296.234375 215.671875 C 296.207031 215.679688 296.199219 215.671875 296.210938 215.644531 C 296.421875 215.257812 296.632812 214.875 296.84375 214.492188 C 297.621094 213.09375 298.257812 211.675781 298.753906 210.238281 C 298.957031 209.640625 299.148438 209.121094 299.320312 208.675781 C 299.738281 207.605469 300.386719 206.769531 301.367188 206.164062 C 303.3125 204.964844 305.71875 204.476562 307.988281 204.550781 C 308 204.550781 308.007812 204.554688 308.011719 204.570312 C 308.082031 204.945312 308.089844 205.316406 308.140625 205.695312 C 308.226562 206.359375 308.152344 207.078125 308.089844 207.75 C 307.894531 209.746094 307.117188 212.351562 305.144531 213.320312 C 304.800781 213.492188 304.402344 213.65625 303.945312 213.824219 C 302.757812 214.25 301.585938 214.679688 300.441406 215.214844 C 299.339844 215.734375 298.257812 216.308594 297.148438 216.8125 C 297.109375 216.828125 297.101562 216.820312 297.128906 216.785156 C 297.160156 216.742188 297.203125 216.699219 297.261719 216.652344 C 299.488281 214.75 301.441406 213.210938 302.90625 210.914062 C 303.238281 210.390625 303.570312 209.816406 303.90625 209.195312 C 303.933594 209.148438 303.980469 209.082031 303.988281 209.023438 Z M 303.988281 209.023438 " fill-opacity="1" fill-rule="nonzero"/><g clip-path="url(#83766f9fd5)"><path fill="#ffffff" d="M 313.554688 217.355469 C 313.648438 217.445312 313.855469 217.601562 313.785156 217.695312 C 313.628906 217.890625 313.464844 218.082031 313.292969 218.265625 C 312.363281 219.253906 311.390625 220.117188 310.246094 220.851562 C 309.195312 221.523438 307.921875 222.109375 306.648438 222.074219 C 305.9375 222.050781 305.25 221.824219 304.550781 221.53125 C 303.777344 221.207031 303.003906 220.867188 302.21875 220.578125 C 301.171875 220.191406 300.105469 219.855469 299.027344 219.5625 C 298.523438 219.429688 298.085938 219.300781 297.703125 219.179688 C 297.613281 219.148438 297.511719 219.105469 297.40625 219.046875 C 297.390625 219.035156 297.390625 219.03125 297.410156 219.027344 C 297.582031 219.019531 297.796875 219.042969 297.917969 219.046875 C 300.035156 219.121094 301.765625 219.292969 303.859375 219.03125 C 305.109375 218.875 306.246094 218.546875 307.445312 218.144531 C 307.582031 218.101562 307.699219 218.054688 307.792969 218.003906 C 307.8125 217.992188 307.8125 217.984375 307.792969 217.976562 C 307.585938 217.90625 307.3125 217.855469 307.164062 217.816406 C 306.265625 217.585938 305.332031 217.386719 304.40625 217.3125 C 304.1875 217.296875 303.96875 217.253906 303.757812 217.25 C 301.902344 217.210938 300.253906 217.414062 298.503906 217.625 C 298.328125 217.644531 298.167969 217.660156 298.023438 217.667969 C 298.011719 217.667969 298 217.664062 298 217.648438 C 297.996094 217.632812 298 217.625 298.015625 217.621094 C 299.671875 217.054688 301.40625 216.476562 302.890625 215.6875 C 303.6875 215.261719 304.460938 214.789062 305.285156 214.425781 C 306.0625 214.085938 306.828125 213.992188 307.667969 214.097656 C 309.898438 214.371094 311.992188 215.808594 313.554688 217.355469 Z M 313.554688 217.355469 " fill-opacity="1" fill-rule="nonzero"/></g><g clip-path="url(#0d4eb32661)"><path fill="#ffffff" d="M 280.871094 218.023438 C 281.34375 218.195312 281.832031 218.355469 282.339844 218.511719 C 284.21875 219.078125 286.136719 219.226562 288.113281 219.144531 C 288.886719 219.113281 289.664062 219.082031 290.4375 219.054688 C 290.707031 219.042969 290.96875 219.042969 291.230469 219.054688 C 291.238281 219.054688 291.246094 219.058594 291.246094 219.070312 C 291.25 219.078125 291.246094 219.085938 291.234375 219.089844 C 290.976562 219.179688 290.644531 219.253906 290.445312 219.3125 C 289.875 219.476562 289.308594 219.644531 288.746094 219.8125 C 287.566406 220.167969 286.410156 220.582031 285.277344 221.058594 C 283.921875 221.632812 282.675781 222.289062 281.140625 222.015625 C 278.84375 221.613281 276.910156 219.933594 275.355469 218.269531 C 275.183594 218.085938 275.027344 217.898438 274.890625 217.710938 C 274.855469 217.664062 274.855469 217.617188 274.898438 217.574219 C 275.726562 216.734375 276.640625 216.007812 277.644531 215.402344 C 278.671875 214.777344 279.8125 214.269531 281.011719 214.101562 C 281.9375 213.972656 282.847656 214.140625 283.679688 214.566406 C 283.925781 214.691406 284.492188 215 285.371094 215.480469 C 287.003906 216.382812 288.769531 216.988281 290.523438 217.601562 C 290.535156 217.605469 290.539062 217.613281 290.535156 217.621094 C 290.535156 217.632812 290.53125 217.636719 290.519531 217.640625 C 290.464844 217.644531 290.402344 217.640625 290.335938 217.632812 C 288.617188 217.40625 286.890625 217.203125 285.15625 217.253906 C 283.714844 217.292969 282.261719 217.558594 280.871094 217.976562 C 280.820312 217.992188 280.820312 218.007812 280.871094 218.023438 Z M 280.871094 218.023438 " fill-opacity="1" fill-rule="nonzero"/></g><path fill="#ffffff" d="M 295.777344 218.101562 C 295.777344 218.292969 295.742188 218.480469 295.667969 218.65625 C 295.59375 218.835938 295.488281 218.992188 295.351562 219.128906 C 295.21875 219.265625 295.058594 219.371094 294.882812 219.445312 C 294.707031 219.515625 294.519531 219.554688 294.328125 219.554688 C 294.136719 219.554688 293.949219 219.515625 293.773438 219.445312 C 293.59375 219.371094 293.4375 219.265625 293.300781 219.128906 C 293.167969 218.992188 293.0625 218.835938 292.988281 218.65625 C 292.914062 218.480469 292.878906 218.292969 292.878906 218.101562 C 292.878906 217.90625 292.914062 217.722656 292.988281 217.542969 C 293.0625 217.367188 293.167969 217.210938 293.300781 217.074219 C 293.4375 216.9375 293.59375 216.832031 293.773438 216.757812 C 293.949219 216.683594 294.136719 216.648438 294.328125 216.648438 C 294.519531 216.648438 294.707031 216.683594 294.882812 216.757812 C 295.058594 216.832031 295.21875 216.9375 295.351562 217.074219 C 295.488281 217.210938 295.59375 217.367188 295.667969 217.542969 C 295.742188 217.722656 295.777344 217.90625 295.777344 218.101562 Z M 295.777344 218.101562 " fill-opacity="1" fill-rule="nonzero"/><path fill="#ffffff" d="M 284.640625 227.144531 C 284.636719 227.175781 284.648438 227.183594 284.675781 227.171875 C 285.914062 226.636719 287.097656 225.996094 288.15625 225.167969 C 288.8125 224.65625 289.460938 224.082031 290.039062 223.457031 C 290.648438 222.800781 291.253906 222.132812 291.851562 221.460938 C 292.089844 221.1875 292.324219 220.949219 292.566406 220.710938 C 292.574219 220.703125 292.582031 220.703125 292.59375 220.707031 C 292.601562 220.714844 292.601562 220.722656 292.597656 220.734375 C 291.660156 222.484375 290.652344 224.28125 289.980469 226.058594 C 289.667969 226.886719 289.464844 227.429688 289.367188 227.679688 C 289.238281 228.003906 289.082031 228.3125 288.886719 228.605469 C 287.636719 230.488281 284.761719 231.3125 282.605469 231.441406 C 281.957031 231.480469 281.257812 231.484375 280.511719 231.449219 C 280.4375 231.445312 280.40625 231.429688 280.398438 231.351562 C 280.332031 230.664062 280.300781 230.21875 280.304688 230.015625 C 280.332031 228.199219 280.667969 226.285156 281.574219 224.699219 C 282.023438 223.917969 282.664062 223.355469 283.5 223.011719 C 284.207031 222.722656 284.972656 222.5625 285.707031 222.363281 C 287.101562 221.980469 288.449219 221.464844 289.75 220.828125 C 290.257812 220.582031 290.75 220.3125 291.261719 220.078125 C 291.269531 220.074219 291.277344 220.074219 291.28125 220.085938 C 291.289062 220.09375 291.289062 220.101562 291.28125 220.109375 C 290.042969 221.113281 288.777344 222.066406 287.628906 223.171875 C 286.445312 224.3125 285.449219 225.632812 284.660156 227.078125 C 284.65625 227.082031 284.644531 227.136719 284.640625 227.144531 Z M 284.640625 227.144531 " fill-opacity="1" fill-rule="nonzero"/><path fill="#ffffff" d="M 302.074219 224.199219 C 300.773438 222.738281 299.035156 221.410156 297.507812 220.226562 C 297.46875 220.195312 297.4375 220.164062 297.414062 220.136719 C 297.398438 220.117188 297.40625 220.109375 297.429688 220.113281 C 297.507812 220.128906 297.566406 220.148438 297.601562 220.167969 C 299.25 221.019531 300.996094 221.800781 302.789062 222.277344 C 303.484375 222.460938 304.199219 222.621094 304.882812 222.839844 C 305.941406 223.175781 306.699219 223.890625 307.214844 224.863281 C 307.65625 225.691406 307.960938 226.566406 308.136719 227.492188 C 308.382812 228.796875 308.464844 230.148438 308.289062 231.394531 C 308.277344 231.476562 308.183594 231.453125 308.136719 231.453125 C 306.601562 231.492188 305.25 231.402344 303.828125 231.039062 C 302.78125 230.773438 301.722656 230.339844 300.867188 229.671875 C 300.148438 229.109375 299.671875 228.40625 299.328125 227.539062 C 299.128906 227.042969 298.933594 226.550781 298.738281 226.050781 C 298.09375 224.421875 297.300781 222.875 296.453125 221.34375 C 296.378906 221.207031 296.308594 221.066406 296.242188 220.925781 C 296.238281 220.917969 296.242188 220.914062 296.246094 220.910156 C 296.253906 220.90625 296.257812 220.90625 296.261719 220.910156 C 297.269531 222.011719 298.273438 223.113281 299.359375 224.140625 C 300.738281 225.445312 302.300781 226.457031 304.054688 227.167969 C 304.0625 227.175781 304.074219 227.171875 304.082031 227.164062 C 304.089844 227.152344 304.09375 227.144531 304.085938 227.132812 C 303.535156 226.0625 302.867188 225.082031 302.074219 224.199219 Z M 302.074219 224.199219 " fill-opacity="1" fill-rule="nonzero"/><g clip-path="url(#f5d3fb7645)"><path fill="#ffffff" d="M 294.273438 230.742188 C 294.273438 230.746094 294.277344 230.75 294.285156 230.75 C 294.289062 230.75 294.292969 230.746094 294.296875 230.742188 C 294.835938 229.335938 295.175781 227.886719 295.3125 226.394531 C 295.410156 225.34375 295.363281 224.390625 295.265625 223.410156 C 295.183594 222.582031 295.097656 221.75 295.015625 220.921875 C 295.003906 220.820312 295 220.742188 294.996094 220.683594 C 294.996094 220.648438 295.003906 220.644531 295.023438 220.679688 C 295.085938 220.808594 295.15625 220.9375 295.210938 221.074219 C 295.820312 222.699219 296.300781 224.230469 297.105469 225.90625 C 297.414062 226.546875 297.71875 227.183594 298.027344 227.824219 C 298.128906 228.035156 298.203125 228.246094 298.28125 228.464844 C 298.671875 229.5625 298.511719 230.640625 298.082031 231.703125 C 297.339844 233.542969 296.167969 234.980469 294.734375 236.320312 C 294.609375 236.4375 294.480469 236.539062 294.347656 236.628906 C 294.332031 236.640625 294.320312 236.636719 294.304688 236.625 C 293.675781 236.039062 293.109375 235.539062 292.492188 234.820312 C 291.316406 233.460938 289.882812 231.226562 290.15625 229.332031 C 290.25 228.6875 290.476562 228.140625 290.796875 227.542969 C 291.09375 226.988281 291.386719 226.429688 291.675781 225.867188 C 292.164062 224.910156 292.582031 223.921875 292.925781 222.902344 C 293.128906 222.304688 293.332031 221.703125 293.53125 221.101562 C 293.5625 221.011719 293.59375 220.9375 293.628906 220.882812 C 293.644531 220.859375 293.648438 220.859375 293.648438 220.886719 C 293.609375 221.886719 293.503906 222.875 293.433594 223.871094 C 293.347656 225.046875 293.332031 226.207031 293.488281 227.386719 C 293.636719 228.53125 293.898438 229.648438 294.273438 230.742188 Z M 294.273438 230.742188 " fill-opacity="1" fill-rule="nonzero"/></g><g fill="#ffffff" fill-opacity="1"><g transform="translate(111.781634, 253.274528)"><g><path d="M 5.96875 0.15625 C 5.320312 0.15625 4.707031 0.0976562 4.125 -0.015625 C 3.550781 -0.128906 3.019531 -0.296875 2.53125 -0.515625 C 2.039062 -0.734375 1.59375 -1.003906 1.1875 -1.328125 C 1.101562 -1.398438 1.046875 -1.484375 1.015625 -1.578125 C 0.984375 -1.671875 0.984375 -1.757812 1.015625 -1.84375 C 1.046875 -1.925781 1.09375 -1.992188 1.15625 -2.046875 C 1.21875 -2.097656 1.289062 -2.125 1.375 -2.125 C 1.46875 -2.125 1.5625 -2.082031 1.65625 -2 C 2.257812 -1.53125 2.894531 -1.1875 3.5625 -0.96875 C 4.238281 -0.75 5.039062 -0.640625 5.96875 -0.640625 C 7.25 -0.640625 8.210938 -0.894531 8.859375 -1.40625 C 9.515625 -1.914062 9.84375 -2.597656 9.84375 -3.453125 C 9.84375 -4.140625 9.601562 -4.675781 9.125 -5.0625 C 8.644531 -5.457031 7.867188 -5.765625 6.796875 -5.984375 L 4.890625 -6.375 C 3.679688 -6.613281 2.78125 -7.015625 2.1875 -7.578125 C 1.601562 -8.148438 1.3125 -8.914062 1.3125 -9.875 C 1.3125 -10.445312 1.421875 -10.96875 1.640625 -11.4375 C 1.867188 -11.90625 2.1875 -12.3125 2.59375 -12.65625 C 3.007812 -13 3.5 -13.257812 4.0625 -13.4375 C 4.625 -13.625 5.242188 -13.71875 5.921875 -13.71875 C 6.773438 -13.71875 7.550781 -13.59375 8.25 -13.34375 C 8.957031 -13.09375 9.601562 -12.707031 10.1875 -12.1875 C 10.269531 -12.101562 10.320312 -12.015625 10.34375 -11.921875 C 10.375 -11.828125 10.375 -11.738281 10.34375 -11.65625 C 10.3125 -11.570312 10.265625 -11.503906 10.203125 -11.453125 C 10.148438 -11.410156 10.078125 -11.390625 9.984375 -11.390625 C 9.898438 -11.390625 9.8125 -11.4375 9.71875 -11.53125 C 9.164062 -12.019531 8.582031 -12.375 7.96875 -12.59375 C 7.351562 -12.820312 6.671875 -12.9375 5.921875 -12.9375 C 5.171875 -12.9375 4.507812 -12.8125 3.9375 -12.5625 C 3.375 -12.3125 2.9375 -11.953125 2.625 -11.484375 C 2.3125 -11.023438 2.15625 -10.488281 2.15625 -9.875 C 2.15625 -9.132812 2.375 -8.546875 2.8125 -8.109375 C 3.25 -7.679688 3.953125 -7.375 4.921875 -7.1875 L 6.828125 -6.796875 C 8.140625 -6.523438 9.109375 -6.128906 9.734375 -5.609375 C 10.367188 -5.085938 10.6875 -4.375 10.6875 -3.46875 C 10.6875 -2.925781 10.578125 -2.429688 10.359375 -1.984375 C 10.140625 -1.546875 9.828125 -1.164062 9.421875 -0.84375 C 9.015625 -0.519531 8.519531 -0.269531 7.9375 -0.09375 C 7.351562 0.0703125 6.695312 0.15625 5.96875 0.15625 Z M 5.96875 0.15625 "/></g></g></g><g fill="#ffffff" fill-opacity="1"><g transform="translate(122.939244, 253.274528)"><g><path d="M 1.1875 0.109375 C 1.0625 0.109375 0.96875 0.0820312 0.90625 0.03125 C 0.84375 -0.0078125 0.8125 -0.078125 0.8125 -0.171875 C 0.8125 -0.273438 0.835938 -0.382812 0.890625 -0.5 L 6.390625 -13.28125 C 6.453125 -13.425781 6.523438 -13.53125 6.609375 -13.59375 C 6.703125 -13.65625 6.796875 -13.6875 6.890625 -13.6875 C 6.992188 -13.6875 7.085938 -13.65625 7.171875 -13.59375 C 7.265625 -13.53125 7.335938 -13.425781 7.390625 -13.28125 L 12.890625 -0.5 C 12.941406 -0.382812 12.96875 -0.273438 12.96875 -0.171875 C 12.96875 -0.078125 12.941406 -0.0078125 12.890625 0.03125 C 12.847656 0.0820312 12.757812 0.109375 12.625 0.109375 C 12.5 0.109375 12.394531 0.0703125 12.3125 0 C 12.226562 -0.0703125 12.160156 -0.164062 12.109375 -0.28125 L 10.546875 -3.921875 L 11.0625 -3.75 L 2.671875 -3.75 L 3.21875 -3.921875 L 1.65625 -0.28125 C 1.601562 -0.144531 1.53125 -0.046875 1.4375 0.015625 C 1.351562 0.078125 1.269531 0.109375 1.1875 0.109375 Z M 6.875 -12.46875 L 3.421875 -4.390625 L 3 -4.5 L 10.734375 -4.5 L 10.359375 -4.390625 L 6.90625 -12.46875 Z M 6.875 -12.46875 "/></g></g></g><g fill="#ffffff" fill-opacity="1"><g transform="translate(136.328432, 253.274528)"><g><path d="M 2.265625 0 C 2.140625 0 2.035156 -0.0351562 1.953125 -0.109375 C 1.878906 -0.191406 1.84375 -0.296875 1.84375 -0.421875 L 1.84375 -13.265625 C 1.84375 -13.398438 1.878906 -13.503906 1.953125 -13.578125 C 2.023438 -13.648438 2.125 -13.6875 2.25 -13.6875 C 2.375 -13.6875 2.472656 -13.648438 2.546875 -13.578125 C 2.617188 -13.503906 2.65625 -13.398438 2.65625 -13.265625 L 2.65625 -0.75 L 9.59375 -0.75 C 9.726562 -0.75 9.832031 -0.71875 9.90625 -0.65625 C 9.976562 -0.59375 10.015625 -0.503906 10.015625 -0.390625 C 10.015625 -0.253906 9.976562 -0.15625 9.90625 -0.09375 C 9.832031 -0.03125 9.726562 0 9.59375 0 Z M 2.265625 0 "/></g></g></g><g fill="#ffffff" fill-opacity="1"><g transform="translate(146.081693, 253.274528)"><g><path d="M 1.1875 0.109375 C 1.0625 0.109375 0.96875 0.0820312 0.90625 0.03125 C 0.84375 -0.0078125 0.8125 -0.078125 0.8125 -0.171875 C 0.8125 -0.273438 0.835938 -0.382812 0.890625 -0.5 L 6.390625 -13.28125 C 6.453125 -13.425781 6.523438 -13.53125 6.609375 -13.59375 C 6.703125 -13.65625 6.796875 -13.6875 6.890625 -13.6875 C 6.992188 -13.6875 7.085938 -13.65625 7.171875 -13.59375 C 7.265625 -13.53125 7.335938 -13.425781 7.390625 -13.28125 L 12.890625 -0.5 C 12.941406 -0.382812 12.96875 -0.273438 12.96875 -0.171875 C 12.96875 -0.078125 12.941406 -0.0078125 12.890625 0.03125 C 12.847656 0.0820312 12.757812 0.109375 12.625 0.109375 C 12.5 0.109375 12.394531 0.0703125 12.3125 0 C 12.226562 -0.0703125 12.160156 -0.164062 12.109375 -0.28125 L 10.546875 -3.921875 L 11.0625 -3.75 L 2.671875 -3.75 L 3.21875 -3.921875 L 1.65625 -0.28125 C 1.601562 -0.144531 1.53125 -0.046875 1.4375 0.015625 C 1.351562 0.078125 1.269531 0.109375 1.1875 0.109375 Z M 6.875 -12.46875 L 3.421875 -4.390625 L 3 -4.5 L 10.734375 -4.5 L 10.359375 -4.390625 L 6.90625 -12.46875 Z M 3.453125 -15.1875 C 3.367188 -15.1875 3.296875 -15.21875 3.234375 -15.28125 C 3.179688 -15.34375 3.160156 -15.441406 3.171875 -15.578125 C 3.273438 -16.210938 3.507812 -16.707031 3.875 -17.0625 C 4.238281 -17.425781 4.675781 -17.609375 5.1875 -17.609375 C 5.539062 -17.609375 5.867188 -17.523438 6.171875 -17.359375 C 6.484375 -17.191406 6.78125 -17.003906 7.0625 -16.796875 C 7.351562 -16.585938 7.628906 -16.398438 7.890625 -16.234375 C 8.160156 -16.066406 8.421875 -15.984375 8.671875 -15.984375 C 9.023438 -15.984375 9.316406 -16.109375 9.546875 -16.359375 C 9.785156 -16.617188 9.945312 -16.972656 10.03125 -17.421875 C 10.050781 -17.523438 10.085938 -17.597656 10.140625 -17.640625 C 10.203125 -17.679688 10.273438 -17.703125 10.359375 -17.703125 C 10.441406 -17.703125 10.515625 -17.671875 10.578125 -17.609375 C 10.640625 -17.546875 10.660156 -17.453125 10.640625 -17.328125 C 10.535156 -16.691406 10.300781 -16.191406 9.9375 -15.828125 C 9.582031 -15.460938 9.148438 -15.28125 8.640625 -15.28125 C 8.296875 -15.28125 7.960938 -15.363281 7.640625 -15.53125 C 7.328125 -15.695312 7.03125 -15.882812 6.75 -16.09375 C 6.46875 -16.3125 6.191406 -16.503906 5.921875 -16.671875 C 5.648438 -16.835938 5.390625 -16.921875 5.140625 -16.921875 C 4.785156 -16.921875 4.488281 -16.789062 4.25 -16.53125 C 4.019531 -16.28125 3.863281 -15.929688 3.78125 -15.484375 C 3.769531 -15.390625 3.734375 -15.316406 3.671875 -15.265625 C 3.609375 -15.210938 3.535156 -15.1875 3.453125 -15.1875 Z M 3.453125 -15.1875 "/></g></g></g><g fill="#ffffff" fill-opacity="1"><g transform="translate(159.470881, 253.274528)"><g><path d="M 7.21875 0.15625 C 6 0.15625 4.945312 -0.125 4.0625 -0.6875 C 3.175781 -1.257812 2.492188 -2.0625 2.015625 -3.09375 C 1.535156 -4.132812 1.296875 -5.367188 1.296875 -6.796875 C 1.296875 -7.867188 1.425781 -8.832031 1.6875 -9.6875 C 1.957031 -10.539062 2.347656 -11.265625 2.859375 -11.859375 C 3.378906 -12.460938 4.003906 -12.921875 4.734375 -13.234375 C 5.460938 -13.554688 6.289062 -13.71875 7.21875 -13.71875 C 8.445312 -13.71875 9.507812 -13.4375 10.40625 -12.875 C 11.300781 -12.320312 11.984375 -11.53125 12.453125 -10.5 C 12.929688 -9.46875 13.171875 -8.238281 13.171875 -6.8125 C 13.171875 -5.738281 13.03125 -4.769531 12.75 -3.90625 C 12.476562 -3.050781 12.082031 -2.320312 11.5625 -1.71875 C 11.050781 -1.113281 10.429688 -0.648438 9.703125 -0.328125 C 8.972656 -0.00390625 8.144531 0.15625 7.21875 0.15625 Z M 7.21875 -0.640625 C 8.289062 -0.640625 9.207031 -0.878906 9.96875 -1.359375 C 10.726562 -1.835938 11.304688 -2.535156 11.703125 -3.453125 C 12.097656 -4.367188 12.296875 -5.484375 12.296875 -6.796875 C 12.296875 -8.742188 11.851562 -10.253906 10.96875 -11.328125 C 10.09375 -12.398438 8.84375 -12.9375 7.21875 -12.9375 C 6.15625 -12.9375 5.242188 -12.695312 4.484375 -12.21875 C 3.722656 -11.738281 3.144531 -11.035156 2.75 -10.109375 C 2.351562 -9.191406 2.15625 -8.085938 2.15625 -6.796875 C 2.15625 -4.859375 2.597656 -3.347656 3.484375 -2.265625 C 4.367188 -1.179688 5.613281 -0.640625 7.21875 -0.640625 Z M 7.21875 -0.640625 "/></g></g></g><g fill="#ffffff" fill-opacity="1"><g transform="translate(173.533397, 253.274528)"><g/></g></g><g fill="#ffffff" fill-opacity="1"><g transform="translate(177.880847, 253.274528)"><g><path d="M 2.328125 0 C 2.171875 0 2.050781 -0.0390625 1.96875 -0.125 C 1.882812 -0.207031 1.84375 -0.328125 1.84375 -0.484375 L 1.84375 -13.09375 C 1.84375 -13.25 1.882812 -13.367188 1.96875 -13.453125 C 2.050781 -13.535156 2.171875 -13.578125 2.328125 -13.578125 L 6.03125 -13.578125 C 8.15625 -13.578125 9.789062 -13 10.9375 -11.84375 C 12.09375 -10.695312 12.671875 -9.015625 12.671875 -6.796875 C 12.671875 -5.691406 12.519531 -4.710938 12.21875 -3.859375 C 11.925781 -3.015625 11.5 -2.304688 10.9375 -1.734375 C 10.375 -1.171875 9.679688 -0.738281 8.859375 -0.4375 C 8.035156 -0.144531 7.09375 0 6.03125 0 Z M 2.65625 -0.75 L 5.953125 -0.75 C 6.921875 -0.75 7.769531 -0.875 8.5 -1.125 C 9.238281 -1.382812 9.847656 -1.765625 10.328125 -2.265625 C 10.816406 -2.765625 11.179688 -3.394531 11.421875 -4.15625 C 11.671875 -4.914062 11.796875 -5.796875 11.796875 -6.796875 C 11.796875 -8.796875 11.304688 -10.300781 10.328125 -11.3125 C 9.359375 -12.320312 7.898438 -12.828125 5.953125 -12.828125 L 2.65625 -12.828125 Z M 2.65625 -0.75 "/></g></g></g><g fill="#ffffff" fill-opacity="1"><g transform="translate(191.443181, 253.274528)"><g><path d="M 2.328125 0 C 2.171875 0 2.050781 -0.0390625 1.96875 -0.125 C 1.882812 -0.207031 1.84375 -0.328125 1.84375 -0.484375 L 1.84375 -13.09375 C 1.84375 -13.25 1.882812 -13.367188 1.96875 -13.453125 C 2.050781 -13.535156 2.171875 -13.578125 2.328125 -13.578125 L 9.71875 -13.578125 C 9.84375 -13.578125 9.941406 -13.539062 10.015625 -13.46875 C 10.085938 -13.40625 10.125 -13.316406 10.125 -13.203125 C 10.125 -13.078125 10.085938 -12.984375 10.015625 -12.921875 C 9.941406 -12.859375 9.84375 -12.828125 9.71875 -12.828125 L 2.65625 -12.828125 L 2.65625 -7.25 L 9.34375 -7.25 C 9.46875 -7.25 9.5625 -7.21875 9.625 -7.15625 C 9.695312 -7.09375 9.734375 -7.003906 9.734375 -6.890625 C 9.734375 -6.765625 9.695312 -6.664062 9.625 -6.59375 C 9.5625 -6.53125 9.46875 -6.5 9.34375 -6.5 L 2.65625 -6.5 L 2.65625 -0.75 L 9.71875 -0.75 C 9.84375 -0.75 9.941406 -0.71875 10.015625 -0.65625 C 10.085938 -0.59375 10.125 -0.503906 10.125 -0.390625 C 10.125 -0.253906 10.085938 -0.15625 10.015625 -0.09375 C 9.941406 -0.03125 9.84375 0 9.71875 0 Z M 2.328125 0 "/></g></g></g><g fill="#ffffff" fill-opacity="1"><g transform="translate(202.023659, 253.274528)"><g/></g></g><g fill="#ffffff" fill-opacity="1"><g transform="translate(206.371109, 253.274528)"><g><path d="M 2.328125 0 C 2.171875 0 2.050781 -0.0390625 1.96875 -0.125 C 1.882812 -0.207031 1.84375 -0.328125 1.84375 -0.484375 L 1.84375 -13.09375 C 1.84375 -13.25 1.882812 -13.367188 1.96875 -13.453125 C 2.050781 -13.535156 2.171875 -13.578125 2.328125 -13.578125 L 6.8125 -13.578125 C 7.738281 -13.578125 8.519531 -13.4375 9.15625 -13.15625 C 9.800781 -12.882812 10.289062 -12.484375 10.625 -11.953125 C 10.96875 -11.429688 11.140625 -10.785156 11.140625 -10.015625 C 11.140625 -9.148438 10.882812 -8.4375 10.375 -7.875 C 9.863281 -7.3125 9.171875 -6.9375 8.296875 -6.75 L 8.296875 -7.03125 C 9.253906 -6.9375 10.019531 -6.597656 10.59375 -6.015625 C 11.164062 -5.429688 11.453125 -4.648438 11.453125 -3.671875 C 11.453125 -2.472656 11.070312 -1.5625 10.3125 -0.9375 C 9.5625 -0.3125 8.476562 0 7.0625 0 Z M 2.65625 -0.75 L 7.046875 -0.75 C 8.222656 -0.75 9.109375 -0.984375 9.703125 -1.453125 C 10.304688 -1.921875 10.609375 -2.644531 10.609375 -3.625 C 10.609375 -4.601562 10.304688 -5.320312 9.703125 -5.78125 C 9.109375 -6.25 8.222656 -6.484375 7.046875 -6.484375 L 2.65625 -6.484375 Z M 2.65625 -7.234375 L 6.75 -7.234375 C 7.90625 -7.234375 8.785156 -7.472656 9.390625 -7.953125 C 9.992188 -8.441406 10.296875 -9.132812 10.296875 -10.03125 C 10.296875 -10.9375 9.992188 -11.628906 9.390625 -12.109375 C 8.785156 -12.585938 7.90625 -12.828125 6.75 -12.828125 L 2.65625 -12.828125 Z M 2.65625 -7.234375 "/></g></g></g><g fill="#ffffff" fill-opacity="1"><g transform="translate(218.79841, 253.274528)"><g><path d="M 2.328125 0 C 2.171875 0 2.050781 -0.0390625 1.96875 -0.125 C 1.882812 -0.207031 1.84375 -0.328125 1.84375 -0.484375 L 1.84375 -13.09375 C 1.84375 -13.25 1.882812 -13.367188 1.96875 -13.453125 C 2.050781 -13.535156 2.171875 -13.578125 2.328125 -13.578125 L 9.71875 -13.578125 C 9.84375 -13.578125 9.941406 -13.539062 10.015625 -13.46875 C 10.085938 -13.40625 10.125 -13.316406 10.125 -13.203125 C 10.125 -13.078125 10.085938 -12.984375 10.015625 -12.921875 C 9.941406 -12.859375 9.84375 -12.828125 9.71875 -12.828125 L 2.65625 -12.828125 L 2.65625 -7.25 L 9.34375 -7.25 C 9.46875 -7.25 9.5625 -7.21875 9.625 -7.15625 C 9.695312 -7.09375 9.734375 -7.003906 9.734375 -6.890625 C 9.734375 -6.765625 9.695312 -6.664062 9.625 -6.59375 C 9.5625 -6.53125 9.46875 -6.5 9.34375 -6.5 L 2.65625 -6.5 L 2.65625 -0.75 L 9.71875 -0.75 C 9.84375 -0.75 9.941406 -0.71875 10.015625 -0.65625 C 10.085938 -0.59375 10.125 -0.503906 10.125 -0.390625 C 10.125 -0.253906 10.085938 -0.15625 10.015625 -0.09375 C 9.941406 -0.03125 9.84375 0 9.71875 0 Z M 2.328125 0 "/></g></g></g><g fill="#ffffff" fill-opacity="1"><g transform="translate(229.378888, 253.274528)"><g><path d="M 2.265625 0 C 2.140625 0 2.035156 -0.0351562 1.953125 -0.109375 C 1.878906 -0.191406 1.84375 -0.296875 1.84375 -0.421875 L 1.84375 -13.265625 C 1.84375 -13.398438 1.878906 -13.503906 1.953125 -13.578125 C 2.023438 -13.648438 2.125 -13.6875 2.25 -13.6875 C 2.375 -13.6875 2.472656 -13.648438 2.546875 -13.578125 C 2.617188 -13.503906 2.65625 -13.398438 2.65625 -13.265625 L 2.65625 -0.75 L 9.59375 -0.75 C 9.726562 -0.75 9.832031 -0.71875 9.90625 -0.65625 C 9.976562 -0.59375 10.015625 -0.503906 10.015625 -0.390625 C 10.015625 -0.253906 9.976562 -0.15625 9.90625 -0.09375 C 9.832031 -0.03125 9.726562 0 9.59375 0 Z M 2.265625 0 "/></g></g></g><g fill="#ffffff" fill-opacity="1"><g transform="translate(239.132149, 253.274528)"><g><path d="M 2.328125 0 C 2.171875 0 2.050781 -0.0390625 1.96875 -0.125 C 1.882812 -0.207031 1.84375 -0.328125 1.84375 -0.484375 L 1.84375 -13.09375 C 1.84375 -13.25 1.882812 -13.367188 1.96875 -13.453125 C 2.050781 -13.535156 2.171875 -13.578125 2.328125 -13.578125 L 9.71875 -13.578125 C 9.84375 -13.578125 9.941406 -13.539062 10.015625 -13.46875 C 10.085938 -13.40625 10.125 -13.316406 10.125 -13.203125 C 10.125 -13.078125 10.085938 -12.984375 10.015625 -12.921875 C 9.941406 -12.859375 9.84375 -12.828125 9.71875 -12.828125 L 2.65625 -12.828125 L 2.65625 -7.25 L 9.34375 -7.25 C 9.46875 -7.25 9.5625 -7.21875 9.625 -7.15625 C 9.695312 -7.09375 9.734375 -7.003906 9.734375 -6.890625 C 9.734375 -6.765625 9.695312 -6.664062 9.625 -6.59375 C 9.5625 -6.53125 9.46875 -6.5 9.34375 -6.5 L 2.65625 -6.5 L 2.65625 -0.75 L 9.71875 -0.75 C 9.84375 -0.75 9.941406 -0.71875 10.015625 -0.65625 C 10.085938 -0.59375 10.125 -0.503906 10.125 -0.390625 C 10.125 -0.253906 10.085938 -0.15625 10.015625 -0.09375 C 9.941406 -0.03125 9.84375 0 9.71875 0 Z M 2.328125 0 "/></g></g></g><g fill="#ffffff" fill-opacity="1"><g transform="translate(249.712627, 253.274528)"><g><path d="M 1.328125 0 C 1.222656 0 1.132812 -0.0195312 1.0625 -0.0625 C 1 -0.113281 0.945312 -0.175781 0.90625 -0.25 C 0.875 -0.320312 0.867188 -0.410156 0.890625 -0.515625 C 0.921875 -0.617188 0.976562 -0.726562 1.0625 -0.84375 L 9.65625 -13.265625 L 9.65625 -12.828125 L 1.265625 -12.828125 C 1.128906 -12.828125 1.019531 -12.859375 0.9375 -12.921875 C 0.863281 -12.992188 0.828125 -13.085938 0.828125 -13.203125 C 0.828125 -13.316406 0.863281 -13.40625 0.9375 -13.46875 C 1.019531 -13.539062 1.128906 -13.578125 1.265625 -13.578125 L 9.96875 -13.578125 C 10.070312 -13.578125 10.160156 -13.550781 10.234375 -13.5 C 10.304688 -13.457031 10.359375 -13.394531 10.390625 -13.3125 C 10.421875 -13.238281 10.421875 -13.148438 10.390625 -13.046875 C 10.367188 -12.941406 10.316406 -12.832031 10.234375 -12.71875 L 1.640625 -0.3125 L 1.640625 -0.75 L 10.296875 -0.75 C 10.441406 -0.75 10.550781 -0.71875 10.625 -0.65625 C 10.695312 -0.59375 10.734375 -0.503906 10.734375 -0.390625 C 10.734375 -0.253906 10.695312 -0.15625 10.625 -0.09375 C 10.550781 -0.03125 10.441406 0 10.296875 0 Z M 1.328125 0 "/></g></g></g><g fill="#ffffff" fill-opacity="1"><g transform="translate(260.3893, 253.274528)"><g><path d="M 1.1875 0.109375 C 1.0625 0.109375 0.96875 0.0820312 0.90625 0.03125 C 0.84375 -0.0078125 0.8125 -0.078125 0.8125 -0.171875 C 0.8125 -0.273438 0.835938 -0.382812 0.890625 -0.5 L 6.390625 -13.28125 C 6.453125 -13.425781 6.523438 -13.53125 6.609375 -13.59375 C 6.703125 -13.65625 6.796875 -13.6875 6.890625 -13.6875 C 6.992188 -13.6875 7.085938 -13.65625 7.171875 -13.59375 C 7.265625 -13.53125 7.335938 -13.425781 7.390625 -13.28125 L 12.890625 -0.5 C 12.941406 -0.382812 12.96875 -0.273438 12.96875 -0.171875 C 12.96875 -0.078125 12.941406 -0.0078125 12.890625 0.03125 C 12.847656 0.0820312 12.757812 0.109375 12.625 0.109375 C 12.5 0.109375 12.394531 0.0703125 12.3125 0 C 12.226562 -0.0703125 12.160156 -0.164062 12.109375 -0.28125 L 10.546875 -3.921875 L 11.0625 -3.75 L 2.671875 -3.75 L 3.21875 -3.921875 L 1.65625 -0.28125 C 1.601562 -0.144531 1.53125 -0.046875 1.4375 0.015625 C 1.351562 0.078125 1.269531 0.109375 1.1875 0.109375 Z M 6.875 -12.46875 L 3.421875 -4.390625 L 3 -4.5 L 10.734375 -4.5 L 10.359375 -4.390625 L 6.90625 -12.46875 Z M 6.875 -12.46875 "/></g></g></g></svg>