<?xml version="1.0" encoding="UTF-8"?>
<svg id="Layer_1" data-name="Layer 1" xmlns="http://www.w3.org/2000/svg" viewBox="0 0 44.9 47.6">
  <path d="M38.2,4.7h-4.8v-1.4c0-1.8-1.5-3.3-3.3-3.3s-3.3,1.5-3.3,3.3v1.4h-8.6v-1.4c0-1.8-1.5-3.3-3.3-3.3s-3.3,1.5-3.3,3.3v1.4h-4.8C3.1,4.7,0,7.7,0,11.5v29.3c0,3.7,3,6.8,6.8,6.8h31.3c3.7,0,6.8-3,6.8-6.8V11.5c0-3.7-3-6.8-6.8-6.8h.1ZM28.3,3.3c0-1,.8-1.8,1.8-1.8s1.8.8,1.8,1.8v4.5c0,1-.8,1.8-1.8,1.8s-1.8-.8-1.8-1.8V3.3ZM13.2,3.3c0-1,.8-1.8,1.8-1.8s1.8.8,1.8,1.8v4.5c0,1-.8,1.8-1.8,1.8s-1.8-.8-1.8-1.8V3.3ZM1.6,11.5c0-2.9,2.4-5.3,5.3-5.3h4.8v1.7c0,1.8,1.5,3.3,3.3,3.3s3.3-1.5,3.3-3.3v-1.7h8.6v1.7c0,1.8,1.5,3.3,3.3,3.3s3.3-1.5,3.3-3.3v-1.7h4.8c2.9,0,5.3,2.4,5.3,5.3v2.5H1.6v-2.5ZM43.4,40.8c0,2.9-2.4,5.3-5.3,5.3H6.8c-2.9,0-5.3-2.4-5.3-5.3V15.5h41.9v25.3Z"/>
  <path d="M7.3,28.9h4.4c1.5,0,2.8-1.2,2.8-2.8v-3.1c0-1.5-1.2-2.8-2.8-2.8h-4.4c-1.5,0-2.8,1.2-2.8,2.8v3.1c0,1.5,1.2,2.8,2.8,2.8ZM6.1,23c0-.7.6-1.3,1.3-1.3h4.4c.7,0,1.3.6,1.3,1.3v3.1c0,.7-.6,1.3-1.3,1.3h-4.4c-.7,0-1.3-.6-1.3-1.3,0,0,0-3.1,0-3.1Z"/>
  <path d="M7.3,41.3h4.4c1.5,0,2.8-1.2,2.8-2.8v-3.1c0-1.5-1.2-2.8-2.8-2.8h-4.4c-1.5,0-2.8,1.2-2.8,2.8v3.1c0,1.5,1.2,2.8,2.8,2.8ZM6.1,35.4c0-.7.6-1.3,1.3-1.3h4.4c.7,0,1.3.6,1.3,1.3v3.1c0,.7-.6,1.3-1.3,1.3h-4.4c-.7,0-1.3-.6-1.3-1.3,0,0,0-3.1,0-3.1Z"/>
  <path d="M19.8,28.9h4.4c1.5,0,2.8-1.2,2.8-2.8v-3.1c0-1.5-1.2-2.8-2.8-2.8h-4.4c-1.5,0-2.8,1.2-2.8,2.8v3.1c0,1.5,1.2,2.8,2.8,2.8ZM18.5,23c0-.7.6-1.3,1.3-1.3h4.4c.7,0,1.3.6,1.3,1.3v3.1c0,.7-.6,1.3-1.3,1.3h-4.4c-.7,0-1.3-.6-1.3-1.3v-3.1Z"/>
  <path d="M19.8,41.3h4.4c1.5,0,2.8-1.2,2.8-2.8v-3.1c0-1.5-1.2-2.8-2.8-2.8h-4.4c-1.5,0-2.8,1.2-2.8,2.8v3.1c0,1.5,1.2,2.8,2.8,2.8ZM18.5,35.4c0-.7.6-1.3,1.3-1.3h4.4c.7,0,1.3.6,1.3,1.3v3.1c0,.7-.6,1.3-1.3,1.3h-4.4c-.7,0-1.3-.6-1.3-1.3v-3.1Z"/>
  <path d="M32.2,28.9h4.4c1.5,0,2.8-1.2,2.8-2.8v-3.1c0-1.5-1.2-2.8-2.8-2.8h-4.4c-1.5,0-2.8,1.2-2.8,2.8v3.1c0,1.5,1.2,2.8,2.8,2.8ZM31,23c0-.7.6-1.3,1.3-1.3h4.4c.7,0,1.3.6,1.3,1.3v3.1c0,.7-.6,1.3-1.3,1.3h-4.4c-.7,0-1.3-.6-1.3-1.3v-3.1Z"/>
  <path d="M37.7,32.3l-4.6,5.4-2.3-2c-.3-.3-.8-.2-1.1,0-.3.3-.2.8,0,1.1l2.9,2.5c.1.1.3.2.5.2s0,0,0,0c.2,0,.4-.1.5-.3l5.1-6c.3-.3.2-.8,0-1.1-.3-.3-.8-.2-1.1,0l.1.2Z"/>
</svg>